<?xml version="1.0" encoding="utf-8"?>
<!-- Generator: Adobe Illustrator 16.0.0, SVG Export Plug-In . SVG Version: 6.00 Build 0)  -->
<!DOCTYPE svg PUBLIC "-//W3C//DTD SVG 1.1//EN" "http://www.w3.org/Graphics/SVG/1.1/DTD/svg11.dtd">
<svg version="1.1" id="Layer_1" xmlns="http://www.w3.org/2000/svg" xmlns:xlink="http://www.w3.org/1999/xlink" x="0px" y="0px"
	 width="169.647px" height="115px" viewBox="0 0 169.647 115" enable-background="new 0 0 169.647 115" xml:space="preserve">
<g>
	<g>
		<g>
			<path fill="#6D6E71" d="M4.179,79.058C4.936,82.07,9.6,97.118,33.526,107.839c0,0.056,4.967,1.721,7.442-0.394
				c7.995-5.41,13.521-22.263,13.521-40.168c0-28.496-6.264-41.574-15.121-42.493C23.564,23.612,7.691,46.04,3.38,50.283
				c-4.097,4.811-3.317,6.387-3.317,6.467c0-0.217-1.999,4.407,16.501-3.798c1.666-0.774,3.221-1.501,4.679-2.169
				c1.942-0.864,2.428,3.429,2.428,9.576c0,6.741,0,13.482,0,20.223c0,5.467-0.433,7.05-1.503,7.134
				c-6.47-2.993-13.053-7.171-16.521-9.931C3.476,76.06,4.179,79.05,4.179,79.058z M38.952,92.563
				c-1.053,0.094-3.013-0.142-5.488-0.747c-1.117-0.781-1.656-3.945-1.656-9.247c0-8.581,0-17.162,0-25.743
				c0-5.672,0.127-9.977,1.956-10.618c5.342-0.831,7.864,1.535,9.73,8.209C46.731,65.879,43.864,91.899,38.952,92.563z"/>
			<path fill="#6D6E71" d="M166.896,95.184c0.422-3.794,1.297-12.38,1.544-18.096c0.008-0.195,0.004-0.398,0.004-0.603
				c0-11.34-5.129-16.156-15.429-17.132c-5.282-0.645-7.629-1.235-7.565-3.76c0-1.741,1.688-3.878,5.495-5.09
				c3.094-0.996,6.818-0.729,8.243,0.213c0.972,0.609,1.799,1.733,2.388,3.188c0-0.006,0.223,1.184,1.976,0.689
				c0.524-0.149,1.049-0.304,1.574-0.464c0,0.001,1.06-0.255,1.06-1.787c0-6.241,0-12.482,0-18.723c0-2.85-3.399,1.608-3.399,1.498
				c-7.331,9.979-23.973,16.126-23.973,22.31c0,4.024,2.087,6.133,7.669,8.068c1.77,0.614,3.54,1.29,5.31,2.063
				c2.394,0.987,6.441,3.371,6.441,7.074c0,3.718-6.718,1.48-13.622-0.149c-6.904-2.04-13.994-3.47-14.738-7.598
				c0,0,0.024-0.509-0.852-0.565c-0.571-0.019-1.142-0.036-1.713-0.052c0,0-0.893-0.063-0.893,0.591c0,2.971,0,5.943,0,8.914
				c0,0.001-0.092,0.679,0.812,0.362c0.437-0.147,0.874-0.288,1.311-0.424c0.86-0.273,1.144-0.781,1.144-0.782
				c0.445-0.658,1.452-1.622,3.298-0.988c0,0.188,17.727,4.139,30.549,19.864C163.529,93.708,166.598,97.854,166.896,95.184z"/>
			<path fill="#6D6E71" d="M119.348,37.944c-2.483,1.698-4.967,3.569-7.451,5.791C95.644,38.148,79.39,28.918,63.136,22.807
				c6.347-10.542,12.693-18.091,19.04-22.436c0-0.05,1.967-1.796,5.261,2.841c10.345,14.337,20.69,25.918,31.035,32.908
				C118.471,36.13,119.793,37.238,119.348,37.944z"/>
			<path fill="#6D6E71" d="M112.193,83.975c0,0.481,7.705,8.43,13.955,7.458c0,0.033-2.478-5.632-2.602-11.311
				C119.761,81.096,115.977,82.415,112.193,83.975z"/>
			<path fill="#6D6E71" d="M122.545,76.444c0-6.869,0-13.739,0-20.608c0-2.119,0.864-3.292,2.376-3.267
				c0.487,0.013,0.974,0.024,1.461,0.033c0.867,0.014,0.771-0.446,0.771-0.446c0-0.463,0-0.926,0-1.389
				c0-0.472-0.912-0.685-0.912-0.686c-3.865-0.561-7.729-1.384-11.594-2.395c-1.375-0.366-1.319,0.479-1.319,0.481
				c0,0.49,0,0.981,0,1.472c0-0.001-0.014,0.686,0.699,0.916c0.535,0.173,1.07,0.341,1.605,0.505c1.44,0.496,2.304,2.04,2.304,4.301
				c0,3.494,0,6.989,0,10.483c-0.024,0.001-0.048,0.003-0.072,0.005c-2.656-4.674-5.312-9.998-7.968-16.243
				c-1.506-3.536-4.375-4.635-4.375-4.618c-8.653-2.821-17.306-6.287-25.959-9.556c-1.959-0.743-1.566,1.021-1.566,1.017
				c0.142,0.835,0.284,1.667,0.425,2.493c0,0.002,0.349,1.678,2.35,2.272c3.82,1.155,7.639,2.334,11.459,3.48
				c0.768,0.36,1.536,0.714,2.304,1.061c1.44,0.733,2.304,3.042,2.304,6.393c0,8.265,0,16.529,0,24.794
				c0,3.286-0.567,6.248-4.608,7.888c-1.38,0.546-2.761,1.098-4.141,1.651c-2.911,1.202-4.464-2.18-5.76-8.277
				c-2.622-12.238-5.245-26.012-7.867-41.219c-0.599-3.476-2.566-4.383-2.566-4.375c-4.917-1.75-9.833-3.356-14.749-4.664
				c-5.5-1.406-3.191,3.248-3.191,3.204c0.184,0.438,0.364,0.884,0.539,1.338c3.361,8.767,4.995,19.834,4.995,34.589
				c0,14.159-3.163,27.105-8.272,36.933c0-0.019-1.771,2.961,1.68,2.008c4.302-1.232,8.604-2.793,12.905-4.553
				c1.693-0.702,1.693-2.411,1.693-2.409c0-0.965,0-1.93,0-2.896c0-1.688-1.872-1.835-1.872-1.842
				c-1.584-0.334-2.664-5.069-1.584-12.089c0.192-1.185,0.384-2.363,0.576-3.535c2.904-0.486,5.808-1.012,8.712-1.561
				c0.168,1.001,0.336,1.996,0.504,2.984c1.152,7.475,0.288,10.31-1.584,11.877c0-0.001-1.872,1.2-1.872,2.568
				c0,1.139,0,2.278,0,3.417c0-0.001-0.104,1.595,1.042,1.085c5.557-2.465,11.114-5.169,16.671-7.831
				c1.38-0.661,2.761-1.32,4.141-1.972c4.103-1.938,8.205-3.814,12.308-5.519c0.938-0.39,0.87-1.048,0.87-1.049
				c0-0.76,0-1.521,0-2.281c0-0.523-0.585-0.418-0.585-0.418c-0.333,0.049-0.666,0.099-0.999,0.148
				c-1.8,0.261-2.376-1.389-2.376-4.426c0-7.587,0-15.174,0-22.761c0.048,0.008,0.096,0.017,0.144,0.024
				c3.923,10.646,7.846,18.972,11.77,25.716c0,0.012,0.753,1.434,3.004,0.711c1.386-0.429,2.772-0.825,4.158-1.185
				C120.523,78.217,122.545,77.855,122.545,76.444z M66.272,68.441c0-0.107,1.375-19.836,0.25-27.173
				c0,0.076,3.565,14.583,5.438,26.771C70.064,68.178,68.168,68.312,66.272,68.441z"/>
			<path fill="#6D6E71" d="M63.231,109.354c0-0.25,4.542,4.394,11.146,5.849c6.604,1.766,15.271,0.343,23.521-4.838
				c16.5-9.102-5.949-5.329-5.808-16.404C82.47,99.277,72.851,104.973,63.231,109.354z"/>
		</g>
	</g>
	<path fill="#6D6E71" d="M133.366,45.562c-2.088,0-3.781,1.693-3.781,3.781c0,1.511,0.892,2.805,2.173,3.41l-0.027,0.017
		c3.458,1.708-1.646,5.917-1.646,5.917v1.25c6.875-2.5,7.062-10.594,7.062-10.594C137.147,47.255,135.455,45.562,133.366,45.562z"/>
</g>
<path display="none" fill="#6D6E71" d="M39.369,24.783C23.564,23.612,7.691,46.04,3.38,50.283c-4.097,4.811-3.317,6.387-3.317,6.467
	c0-0.217-1.999,4.407,16.501-3.798c1.666-0.774,3.221-1.501,4.679-2.169c1.942-0.864,2.428,3.429,2.428,9.576
	c0,6.741,0,13.482,0,20.223c0,5.467-0.433,7.05-1.503,7.134c-6.47-2.993-13.053-7.171-16.521-9.931
	c-2.17-1.726-1.468,1.265-1.468,1.272C4.936,82.07,9.6,97.118,33.526,107.839c0,0.056,4.967,1.721,7.442-0.394
	c7.995-5.41,13.521-22.263,13.521-40.168C54.49,38.781,48.226,25.703,39.369,24.783z M38.952,92.563
	c-1.053,0.094-3.013-0.142-5.488-0.747c-1.117-0.781-1.656-3.945-1.656-9.247c0-8.581,0-17.162,0-25.743
	c0-5.672,0.127-9.977,1.956-10.618c5.342-0.831,7.864,1.535,9.73,8.209C46.731,65.879,43.864,91.899,38.952,92.563z M168.444,76.486
	c0,0.204,0.004,0.407-0.004,0.603c-0.247,5.715-1.122,14.302-1.544,18.096c-0.298,2.669-3.366-1.476-3.366-1.38
	C150.707,78.079,132.98,74.128,132.98,73.94c-1.846-0.633-2.853,0.33-3.298,0.988c0,0.001-0.283,0.509-1.144,0.782
	c-0.437,0.136-0.874,0.277-1.311,0.424c-0.903,0.317-0.812-0.361-0.812-0.362c0-2.971,0-5.943,0-8.914
	c0-0.654,0.893-0.591,0.893-0.591c0.571,0.016,1.142,0.033,1.713,0.052c0.876,0.056,0.852,0.565,0.852,0.565
	c0.744,4.128,7.834,5.559,14.738,7.598c6.904,1.629,13.622,3.868,13.622,0.149c0-3.703-4.047-6.086-6.441-7.074
	c-1.77-0.773-3.54-1.449-5.31-2.063c-5.583-1.935-7.669-4.044-7.669-8.068c0-6.184,16.642-12.331,23.973-22.31
	c0,0.11,3.399-4.347,3.399-1.498c0,6.241,0,12.482,0,18.723c0,1.532-1.06,1.789-1.06,1.787c-0.524,0.161-1.049,0.315-1.574,0.464
	c-1.753,0.494-1.976-0.695-1.976-0.689c-0.589-1.455-1.416-2.579-2.388-3.188c-1.424-0.942-5.148-1.209-8.243-0.213
	c-3.807,1.211-5.495,3.349-5.495,5.09c-0.064,2.525,2.283,3.116,7.565,3.76C163.314,60.33,168.444,65.146,168.444,76.486z
	 M111.897,43.735C95.644,38.148,79.39,28.918,63.136,22.807c6.347-10.542,12.693-18.091,19.04-22.436
	c0-0.05,1.967-1.796,5.261,2.841c10.345,14.337,20.69,25.918,31.035,32.908c0,0.01,1.322,1.118,0.877,1.824
	C116.865,39.642,114.381,41.513,111.897,43.735z M123.545,80.123c0.125,5.678,2.602,11.344,2.602,11.311
	c-6.25,0.972-13.955-6.977-13.955-7.458C115.977,82.415,119.761,81.096,123.545,80.123z M127.154,52.157c0-0.463,0-0.926,0-1.389
	c0-0.472-0.912-0.685-0.912-0.686c-3.865-0.561-7.729-1.384-11.594-2.395c-1.375-0.366-1.319,0.479-1.319,0.481
	c0,0.49,0,0.981,0,1.472c0-0.001-0.014,0.686,0.699,0.916c0.535,0.173,1.07,0.341,1.605,0.505c1.44,0.496,2.304,2.04,2.304,4.301
	c0,3.494,0,6.989,0,10.483c-0.024,0.001-0.048,0.003-0.072,0.005c-2.656-4.674-5.312-9.998-7.968-16.243
	c-1.506-3.536-4.375-4.635-4.375-4.618c-8.653-2.821-17.306-6.287-25.959-9.556c-1.959-0.743-1.566,1.021-1.566,1.017
	c0.142,0.835,0.284,1.667,0.425,2.493c0,0.002,0.349,1.678,2.35,2.272c3.82,1.155,7.639,2.334,11.459,3.48
	c0.768,0.36,1.536,0.714,2.304,1.061c1.44,0.733,2.304,3.042,2.304,6.393c0,8.265,0,16.529,0,24.794
	c0,3.286-0.567,6.248-4.608,7.888c-1.38,0.546-2.761,1.098-4.141,1.651c-2.911,1.202-4.464-2.18-5.76-8.277
	c-2.622-12.238-5.245-26.012-7.867-41.219c-0.599-3.476-2.566-4.383-2.566-4.375c-4.917-1.75-9.833-3.356-14.749-4.664
	c-5.5-1.406-3.191,3.248-3.191,3.204c0.184,0.438,0.364,0.884,0.539,1.338c3.361,8.767,4.995,19.834,4.995,34.589
	c0,14.159-3.163,27.105-8.272,36.933c0-0.019-1.771,2.961,1.68,2.008c4.302-1.232,8.604-2.793,12.905-4.553
	c1.693-0.702,1.693-2.411,1.693-2.409c0-0.965,0-1.93,0-2.896c0-1.688-1.872-1.835-1.872-1.842
	c-1.584-0.334-2.664-5.069-1.584-12.089c0.192-1.185,0.384-2.363,0.576-3.535c2.904-0.486,5.808-1.012,8.712-1.561
	c0.168,1.001,0.336,1.996,0.504,2.984c1.152,7.475,0.288,10.31-1.584,11.877c0-0.001-1.872,1.2-1.872,2.568c0,1.139,0,2.278,0,3.417
	c0-0.001-0.104,1.595,1.042,1.085c5.557-2.465,11.114-5.169,16.671-7.831c1.38-0.661,2.761-1.32,4.141-1.972
	c4.103-1.938,8.205-3.814,12.308-5.519c0.938-0.39,0.87-1.048,0.87-1.049c0-0.76,0-1.521,0-2.281c0-0.523-0.585-0.418-0.585-0.418
	c-0.333,0.049-0.666,0.099-0.999,0.148c-1.8,0.261-2.376-1.389-2.376-4.426c0-7.587,0-15.174,0-22.761
	c0.048,0.008,0.096,0.017,0.144,0.024c3.923,10.646,7.846,18.972,11.77,25.716c0,0.012,0.753,1.434,3.004,0.711
	c1.386-0.429,2.772-0.825,4.158-1.185c0-0.006,2.022-0.368,2.022-1.779c0-6.869,0-13.739,0-20.608c0-2.119,0.864-3.292,2.376-3.267
	c0.487,0.013,0.974,0.024,1.461,0.033C127.25,52.616,127.154,52.156,127.154,52.157z M66.272,68.441
	c0-0.107,1.375-19.836,0.25-27.173c0,0.076,3.565,14.583,5.438,26.771C70.064,68.178,68.168,68.312,66.272,68.441z M97.897,110.365
	c-8.25,5.182-16.917,6.604-23.521,4.838c-6.604-1.455-11.146-6.099-11.146-5.849c9.62-4.381,19.239-10.077,28.859-15.394
	C91.948,105.036,114.397,101.263,97.897,110.365z M137.147,49.344c0,0-0.188,8.094-7.062,10.594v-1.25c0,0,5.104-4.208,1.646-5.917
	l0.027-0.017c-1.281-0.605-2.173-1.899-2.173-3.41c0-2.088,1.693-3.781,3.781-3.781S137.147,47.255,137.147,49.344z"/>
<g display="none">
	<circle display="inline" fill="none" cx="83.707" cy="63.009" r="86.126"/>
	<text transform="matrix(0.6626 0.749 -0.749 0.6626 16.0776 116.5479)" display="inline"><tspan x="0" y="0" font-family="'Helvetica-Bold'" font-size="15.3225">F</tspan><tspan x="10.149" y="-0.046" font-family="'Helvetica-Bold'" font-size="15.3225" rotate="-6.704">L</tspan><tspan x="20.263" y="-1.259" font-family="'Helvetica-Bold'" font-size="15.3225" rotate="-13.728">Y</tspan><tspan x="30.715" y="-3.979" font-family="'Helvetica-Bold'" font-size="15.3225" rotate="-18.927"> </tspan><tspan x="35.337" y="-5.474" font-family="'Helvetica-Bold'" font-size="15.3225" rotate="-23.866">F</tspan><tspan x="44.337" y="-9.603" font-family="'Helvetica-Bold'" font-size="15.3225" rotate="-28.79">I</tspan><tspan x="48.664" y="-11.856" font-family="'Helvetica-Bold'" font-size="15.3225" rotate="-34.052">S</tspan><tspan x="57.864" y="-18.114" font-family="'Helvetica-Bold'" font-size="15.3225" rotate="-41.755">H</tspan><tspan x="66.443" y="-26.029" font-family="'Helvetica-Bold'" font-size="15.3225" rotate="-47.209">I</tspan><tspan x="69.876" y="-29.546" font-family="'Helvetica-Bold'" font-size="15.3225" rotate="-52.649">N</tspan><tspan x="77.157" y="-39.148" font-family="'Helvetica-Bold'" font-size="15.3225" rotate="-60.941">G</tspan><tspan x="83.061" y="-50.244" font-family="'Helvetica-Bold'" font-size="15.3225" rotate="-66.799"> </tspan><tspan x="85.162" y="-54.74" font-family="'Helvetica-Bold'" font-size="15.3225" rotate="-72.677">G</tspan><tspan x="88.868" y="-67.04" font-family="'Helvetica-Bold'" font-size="15.3225" rotate="-80.671">E</tspan><tspan x="90.638" y="-78.013" font-family="'Helvetica-Bold'" font-size="15.3225" rotate="-88.312">A</tspan><tspan x="90.927" y="-90.005" font-family="'Helvetica-Bold'" font-size="15.3225" rotate="-96.235">R</tspan></text>
	<circle display="inline" fill="none" cx="83.707" cy="63.009" r="74.8"/>
	<text transform="matrix(0.6208 -0.7839 0.7839 0.6208 22.1299 20.2778)" display="inline"><tspan x="0" y="0" font-family="'Helvetica-Bold'" font-size="15.3225">T</tspan><tspan x="9.04" y="-0.077" font-family="'Helvetica-Bold'" font-size="15.3225" rotate="7.52">A</tspan><tspan x="19.665" y="1.3" font-family="'Helvetica-Bold'" font-size="15.3225" rotate="15.669">C</tspan><tspan x="29.977" y="4.166" font-family="'Helvetica-Bold'" font-size="15.3225" rotate="23.85">K</tspan><tspan x="39.803" y="8.548" font-family="'Helvetica-Bold'" font-size="15.3225" rotate="31.469">L</tspan><tspan x="47.531" y="13.222" font-family="'Helvetica-Bold'" font-size="15.3225" rotate="38.759">E</tspan><tspan x="55.223" y="19.561" font-family="'Helvetica-Bold'" font-size="15.3225" rotate="44.131"> </tspan><tspan x="58.229" y="22.271" font-family="'Helvetica-Bold'" font-size="15.3225" rotate="49.469">S</tspan><tspan x="64.671" y="29.77" font-family="'Helvetica-Bold'" font-size="15.3225" rotate="56.924">E</tspan><tspan x="70.112" y="38.027" font-family="'Helvetica-Bold'" font-size="15.3225" rotate="64.822">R</tspan><tspan x="74.662" y="47.717" font-family="'Helvetica-Bold'" font-size="15.3225" rotate="72.747">V</tspan><tspan x="77.498" y="57.281" font-family="'Helvetica-Bold'" font-size="15.3225" rotate="78.135">I</tspan><tspan x="78.5" y="61.17" font-family="'Helvetica-Bold'" font-size="15.3225" rotate="83.814">C</tspan><tspan x="79.649" y="71.835" font-family="'Helvetica-Bold'" font-size="15.3225" rotate="91.669">E</tspan><tspan x="79.23" y="81.819" font-family="'Helvetica-Bold'" font-size="15.3225" rotate="97.007"> </tspan><tspan x="78.918" y="85.827" font-family="'Helvetica-Bold'" font-size="15.3225" rotate="102.647">&amp;</tspan></text>
</g>
</svg>
