<?xml version="1.0" encoding="utf-8"?>
<!-- Generator: Adobe Illustrator 16.0.0, SVG Export Plug-In . SVG Version: 6.00 Build 0)  -->
<!DOCTYPE svg PUBLIC "-//W3C//DTD SVG 1.1//EN" "http://www.w3.org/Graphics/SVG/1.1/DTD/svg11.dtd">
<svg version="1.1" id="Layer_1" xmlns="http://www.w3.org/2000/svg" xmlns:xlink="http://www.w3.org/1999/xlink" x="0px" y="0px"
	 width="317.117px" height="272.666px" viewBox="0 0 317.117 272.666" enable-background="new 0 0 317.117 272.666"
	 xml:space="preserve">
<g>
	<path fill="#FFFFFF" d="M94.277,85.714c0.746-1.904,1.173-3.047,1.173-3.047C95.057,83.713,94.666,84.72,94.277,85.714z"/>
	<path fill="#FFFFFF" d="M93.926,86.604c0.117-0.293,0.233-0.592,0.351-0.89C94.167,85.996,94.05,86.29,93.926,86.604z"/>
	<path fill="#FFFFFF" d="M308.784,124l-25.283,0.511c2.58-1.203,5.021-2.479,7.283-3.844c0,0-2.753,1.594-8.654,3.872
		l-113.083,2.284l80.404-9.49l-90.56,9.696l-24.729,0.5c0.538-0.217,1.081-0.44,1.626-0.666l12.842-3.646l68.34-14.69
		c30.751-4.454,59.021-5.977,73.479-0.193c0,0-7.279-8.487-52.623-4.29L317.117,87l-87.678,17.918
		c-10.011,1.155-21.625,2.871-35.091,5.317L293.784,82l-122.429,32.763c-3.358,0.708-6.808,1.454-10.354,2.241
		c10.631-3.3,21.571-7.035,32.142-11.184L270.451,85l-69.362,17.589c22.62-9.536,42.624-21.033,52.854-34.282l7.508-2.974
		l-7.395,2.825c2.827-3.69,4.894-7.517,6.048-11.474l30.347-13.351l-30.279,13.112c0.443-1.574,0.742-3.169,0.888-4.784
		c-0.114,0.882-0.456,2.619-1.472,5.037l-56.39,24.419c5.096-5.931,9.654-12.414,13.441-19.487l30.478-19.298l-30.029,18.463
		c2.968-5.671,5.427-11.722,7.272-18.164c10.848-6.24,20.092-10.43,26.424-11.299c0,0-4.986-1.676-25.999,9.835
		c2.825-10.493,3.984-22.03,2.997-34.674c0.397,7.372,0.087,20.375-4.71,35.621c-17.536,9.8-45.575,28.346-89.798,63.279
		c11.602-11.615,20.716-23.295,27.887-34.436L226.45,13l-62.59,53.648C186.209,29.843,187.451,0,187.451,0
		c-5.611,28.251-15.63,51.208-26.962,69.539l-11.204,9.603c10.721-18.138,12.832-30.475,12.832-30.475
		c-4.26,12.534-10.108,23.782-16.504,33.623L95.783,125l7.667-12.333l-9.667,11.667l1.648-6.429l0.352-0.238l-0.327,0.14l1.66-6.473
		l-3.212,7.139l-12.121,5.194l40.667-48.333l-43.667,48l15.353-19.775L97.784,101l-3.424,2.271l26.09-33.605l-30.794,36.725
		l-6.391,4.239c4.431-8.664,8.533-18.644,10.661-24.027c-4.735,11.933-9.147,20.027-12.914,25.522L70.197,119.3l2.914-8.999
		L84.117,98l-10.134,9.608l6.879-21.25L88.784,78l-7.546,7.199l2.546-7.865l-3.344,8.626L67.925,97.898l3.192-8.231l-4.863,9.826
		l-3.875,3.696l7.398-18.971L74.45,78l-4.223,5.06l5.223-13.394l-6.477,14.896l-34.857,41.771l-0.878,2.706
		c-0.41-0.025-0.818-0.038-1.217-0.034l-3.572-1.339l1.36,1.587c-1.447,0.358-2.491,1.147-2.607,2.65
		c-1.76-1.544-4.06-2.488-6.586-2.488c-5.272,0-9.581,4.082-9.962,9.256c-0.778-0.792-2.04-0.865-2.895-0.131l-7.019,6.025
		c-0.891,0.765-0.993,2.105-0.229,2.996s2.106,0.993,2.997,0.229l7.018-6.025c0.112-0.096,0.211-0.201,0.298-0.313
		c0.941,4.546,4.966,7.964,9.792,7.964c2.5,0,4.781-0.924,6.534-2.441c1.234,1.185,2.872,1.935,4.966,1.329
		c1.089-0.314,2.352-0.698,3.679-1.113l0.654,1.113l1.667,1.112C51.784,181.5,69.45,187.001,69.45,187.001
		c-17.667-10-28-32.334-28-32.334c15.608,19.844,26.136,26.557,31.402,28.831l2.264,7.169l-1.771-6.96
		c2.283,0.926,3.437,0.96,3.437,0.96c-1.196-0.5-2.421-1.124-3.659-1.832l-1.172-4.607l1.322,1.056l0,0l0,0l9.62,7.681
		l-2.444,12.703l2.87-12.362l5.463,4.362l-5.373-4.752l1.306-5.625l4.338,3.089l4.729,14.288l-3.762-13.6l16.762,11.934
		L89.74,184.048l-1.102-3.982c2.1,0.656,4.224,1.413,6.336,2.146l0.476,5.456l-0.133-5.338c2.833,0.979,5.643,1.896,8.349,2.448
		l7.784,13.224l-7.052-13.084c2.978,0.536,5.82,0.587,8.414-0.267l0.971,2.351l-0.841-2.391c1.723-0.589,3.335-1.586,4.805-3.109
		l5.037,13.166l-4.487-13.772c0.151-0.176,0.3-0.359,0.449-0.547l49.872,89.319l-49.093-90.385c0.518-0.768,1.012-1.626,1.481-2.574
		l1.446,0.626l-1.42-0.68c0.977-1.985,1.847-4.37,2.586-7.237c0.309-1.197,0.525-2.338,0.675-3.437l41.947,57.117
		c8.062,14.808,15.459,31.377,21.211,49.568c0,0-2.667-16.039-15.128-41.286l19.795,26.954l-21.534-30.416
		c-9.452-18.442-23.974-41.344-46.092-66.291c-0.229-4.055-1.666-7.306-3.872-9.912c2.203,0.921,4.494,1.917,6.867,2.995
		l53.418,44.129c7.824,10.47,10.579,17.672,10.854,18.423c-1.893-5.476-4.45-10.699-7.508-15.659l52.534,43.398l-54.911-47.046
		c-8.016-11.743-18.73-21.916-29.744-30.38c16.931,10.023,35.673,23.668,53.988,42.092c0,0-20.337-26.007-62.218-48.086
		c-5.793-4.001-11.499-7.517-16.771-10.53l-2.271-1.945c5.066,1.074,10.537,2.164,16.285,3.209l71.792,37.673
		c5.288,6.234,8.854,11.779,11.083,15.743c-2.875-5.403-6.089-10.374-9.569-14.949l62.669,32.886l-63.936-34.515
		c-8.38-10.596-18.198-19.005-28.523-25.663l94.792,38.178L177.46,159.171c-1.29-0.722-2.583-1.425-3.88-2.099
		c7.778,0.834,15.605,1.417,23.236,1.637c28.285,7.406,50.967,13.958,50.967,13.958c-8.559-3.486-26.425-8.564-46.832-13.874
		c15.537,0.168,30.021-1.323,41.262-5.521l60.903,10.062l-59.533-10.59c4.453-1.796,8.354-4.046,11.559-6.822
		c-1.086,0.858-5.191,3.768-13.897,6.406l-60.606-10.781c16.332-0.413,33.302-1.456,49.367-3.518h59.778l-54.67-0.698
		c18.178-2.618,34.945-6.628,47.971-12.622L308.784,124z M144.96,128.52l-18.524,1.983c1.371-0.502,2.777-1.03,4.221-1.589
		L144.96,128.52z M114.741,173.646l-6.806-3.257l-6.543-18.591l0.546-1.552l12.234,21.911L114.741,173.646z M90.053,158.305
		l2.063-8.888l1.219,13.984l-0.72-0.344L90.053,158.305z M90.2,161.901l-0.883-0.423l0.179-0.773L90.2,161.901z M101.784,126.334
		l7.733-3.402c-0.339,0.284-0.67,0.561-0.992,0.827L101.784,126.334z M107.232,142.752c-0.278-0.072-0.556-0.144-0.835-0.216
		c-0.216-0.214-0.427-0.426-0.644-0.64c0.433,0.202,0.868,0.404,1.296,0.606L107.232,142.752z M112.371,125.086
		c0.535-0.441,1.078-0.889,1.639-1.35l2.006-0.794l-3.379,2.078L112.371,125.086z M99.117,145.334l0.042-0.019
		c0.009,0,0.018,0,0.026,0l1.812,3.245l-0.306,1.246L99.117,145.334z M99.842,153.263l-0.969,3.944l-1.757-10.54L99.842,153.263z
		 M101.104,145.369c0.222,0.012,0.444,0.027,0.667,0.044l-0.2,0.814L101.104,145.369z M104.9,139.774l-0.01-0.031
		c0.046,0.003,0.094,0.006,0.141,0.009l0.086,0.118C105.045,139.839,104.969,139.805,104.9,139.774z M112.916,135.025
		c0.197-0.059,0.405-0.124,0.606-0.185l2.407,0.97l-1.599-0.021L112.916,135.025z M113.193,127.952l-1.338,0.027l0.733-0.464
		l42.879-11.548c-2.106,1.083-4.269,2.148-6.498,3.194C138.125,122.163,126.236,125.106,113.193,127.952z M119.129,123.373
		l7.021-4.446l61.535-24.375c-7.26,6.271-15.809,12.334-25.856,17.992L119.129,123.373z M133.725,114.131l9.567-6.058l55.666-24.489
		c-2.796,3.076-5.855,6.129-9.202,9.14L133.725,114.131z M124.797,117.542l-6.056,2.314c0.85-0.694,1.721-1.405,2.612-2.131
		l11.06-4.865L124.797,117.542z M90.117,149.417l-1.277,6.637l-2.723-5.053L90.117,149.417z M94.894,165.409l4.424,1.914
		l3.741,15.109l-8.116-15.057L94.894,165.409z M94.862,164.132l-0.412-16.465l3.397,13.719l-0.397,1.615l0.468-1.329l1.102,4.45
		L94.862,164.132z M99.071,158.394l1.33-3.779l6.267,15.168l-6.193-2.964L99.071,158.394z M102.651,148.219l0.926-2.631
		c0.152,0.019,0.303,0.042,0.455,0.062l6.611,17.282L102.651,148.219z M109.747,141.99l-1.428-2.017
		c0.466,0.03,0.954,0.061,1.437,0.091l5.711,4.719C113.381,143.731,111.464,142.801,109.747,141.99z M141.129,145.959l19.335,7.787
		c-5.91-0.864-12.16-1.917-18.766-3.183l-15.259-8.237C131.58,143.396,136.47,144.616,141.129,145.959z M128.176,141.027
		c0.259,0.011,0.525,0.021,0.787,0.032l0.893,0.359C129.287,141.286,128.732,141.156,128.176,141.027z M118.831,138.218l-0.35-0.189
		h2.96l1.186,0.478C121.366,138.413,120.107,138.32,118.831,138.218z M126.72,138.029h23.239l13.995,2.312
		c-10.872-0.127-22.542-0.57-35.025-1.392L126.72,138.029z M121.564,135.881l-4.873-2.03c0.86-0.275,1.758-0.571,2.676-0.876
		l18.879,3.119L121.564,135.881z M188.356,113.315l-17.317,3.539l1.625-0.461C177.83,115.335,183.079,114.302,188.356,113.315z
		 M156.989,116.876c1.544-0.827,3.093-1.687,4.646-2.57l19.774-5.326C173.982,111.631,165.864,114.271,156.989,116.876z
		 M192.852,104.678l-26.088,6.615c8.504-5.181,16.96-11.239,24.76-18.261l59.42-23.536
		C241.929,79.317,224.924,91.964,192.852,104.678z M259.476,56.96c-1.353,3.134-3.82,7.355-8.323,12.308L193.37,91.344
		c3.132-2.921,6.142-6.007,8.996-9.259L259.476,56.96z M199.882,82.554l-51.526,22.313l65.303-41.348
		C210.03,69.82,205.505,76.227,199.882,82.554z M214.195,62.576l-75.795,46.603l-13.977,6.053
		c26.44-21.432,68.022-53.896,98.146-71.553C220.564,49.718,217.848,56.085,214.195,62.576z M157.509,74.201
		c-11.202,17.022-23.386,29.74-33.731,38.748c-1.327,1.063-2.665,2.137-4.019,3.228c11.604-11.354,20.1-22.226,26.289-31.801
		L157.509,74.201z M141.342,88.553c-10.129,14.174-21.017,24.948-28.898,31.865l-13.661,5.916L141.342,88.553z M93.602,119.145
		l-2.485,5.522H85.45L93.602,119.145z M83.783,151.001l4.544,7.719l-0.403,2.093l-5.315-2.543l-1.826-6.603L83.783,151.001z
		 M48.45,152.667h14.667l4.632,14.667L48.45,152.667z M68.512,169.754l1.745,5.524L45.45,153.334L68.512,169.754z M46.45,122.667
		l11.005-11.611l-5.338,12.278l2.333-6L46.45,122.667z M65.45,152.667l15.302,6.622l4.674,14.126l-5.917,2.857l-9.985-7.589
		L65.45,152.667z M84.441,178.922l-0.185,0.958l-1.76-1.337C83.14,178.647,83.788,178.775,84.441,178.922z M83.182,160.341
		l4.462,1.931l-1.611,8.375L83.182,160.341z M80.001,157.021l-7.967-3.812l6.416-0.875L80.001,157.021z M89.023,107.146
		L75.45,123.334c2.353-2.805,4.901-7.087,7.366-11.833L89.023,107.146z M80.126,113.388c-6.846,9.513-11.343,10.279-11.343,10.279
		l0.972-3.003L80.126,113.388z M66.585,121.697l-2.468,1.637H61.45l7.941-8.875L66.585,121.697z M79.885,87.389l-8.963,23.121
		L58.45,122.334l8.09-20.864L79.885,87.389z M63.892,104.264l-9.108,18.403l5.825-14.939L63.892,104.264z M68.229,86.277
		L59.81,105.64l-21.693,20.694L68.229,86.277z M72.537,182.498c-13.47-7.993-28.42-26.497-28.42-26.497l26.814,21.411
		L72.537,182.498z M71.477,176.357l-1.396-5.487l8.332,5.932l-4.162,2.01L71.477,176.357z M82.977,186.531l-8.635-7.64
		c1.948-0.625,4.018-0.772,6.169-0.596l3.562,2.536L82.977,186.531z M88.678,183.241l-3.752-2.853l0.298-1.283
		c0.759,0.186,1.522,0.394,2.291,0.62L88.678,183.241z M90.37,178.667c-5.997-1.75,0.747-8,0.747-8l-4.43,2.14l2.31-9.95
		l2.369,1.025l2.361,4.012l1.077,12.355C92.984,179.591,91.446,178.981,90.37,178.667z M95.269,180.415l-0.259-10.342l7.253,12.322
		C99.748,181.921,97.341,181.153,95.269,180.415z M103.119,182.544l-0.033-0.061l-2.43-14.581l6.376,2.759l4.731,11.45
		C109,183.019,106.009,183.003,103.119,182.544z M112.032,182.025l-3.82-10.854l6.691,2.896l1.884,4.926
		C115.35,180.446,113.74,181.423,112.032,182.025z M117.449,178.294l-0.209-0.643l0.296,0.531
		C117.506,178.218,117.479,178.259,117.449,178.294z M118.353,177.127l-1.112-2.047l1.899,0.821
		C118.888,176.335,118.624,176.741,118.353,177.127z M121.742,169.042c-0.641,2.717-1.507,4.933-2.538,6.738l-2.138-1.022
		l-1.922-3.538l-8.034-24.662c0.24,0.083,0.488,0.17,0.733,0.256c2.515,2.38,5.467,5.278,8.741,8.672l5.861,7.98
		C122.433,165.185,122.215,167.037,121.742,169.042z M128.928,169.083c10.623,12.412,22.68,28.438,33.786,47.72L128.928,169.083z
		 M120.565,157.271l-5.425-7.663c3.181,2.119,5.641,5.095,6.715,9.08C121.428,158.216,120.997,157.743,120.565,157.271z
		 M119.193,150.216c-1.41-1.326-3.033-2.46-4.799-3.425c0.782,0.181,1.58,0.362,2.393,0.547c1.719,0.896,3.4,1.798,5.044,2.702
		l3.033,2.505C123.005,151.756,121.117,150.979,119.193,150.216z M176.708,193.529l-40.356-34.575
		c0.601,0.302,1.204,0.605,1.812,0.918C156.199,171.768,168.493,183.668,176.708,193.529z M121.555,146.276l-6.908-5.918
		c0.495,0.028,0.984,0.057,1.493,0.085c1.17,0.186,2.333,0.377,3.48,0.578l15.801,8.292
		C130.952,148.396,126.338,147.39,121.555,146.276z M211.357,188.167l-64.571-34.857c6.439,1.098,13.152,2.114,19.964,2.968
		l7.715,3.107C191.298,168.44,203.192,178.938,211.357,188.167z M169.262,154.925c-6.776-3.241-13.566-5.866-20.125-7.982
		c13.137,2.988,26.976,6.414,40.004,9.771C183.037,156.373,176.427,155.796,169.262,154.925z M239.522,152.827
		c-9.637,2.688-24.324,4.918-45.796,4.103c-17.573-4.492-36.379-9.035-52.424-12.824l-6.81-2.838
		c11.315,0.391,24.199,0.614,37.729,0.439L239.522,152.827z M174.029,140.371l-13.164-2.342h58.416
		C206.224,139.379,191.192,140.269,174.029,140.371z M226.451,137.221l-75.556-0.965l-24.635-4.382l31.374-3.703l123.944-3.419
		C271.847,128.455,254.035,133.835,226.451,137.221z"/>
	<path fill="#FFFFFF" d="M191.757,217.262c0.009,0.024,0.018,0.048,0.026,0.072C191.784,217.334,191.773,217.305,191.757,217.262z"
		/>
	<path fill="#FFFFFF" d="M224.017,205.73c1.081,2.031,2.119,4.115,3.1,6.27C227.117,212,226.208,209.627,224.017,205.73z"/>
	<path fill="#FFFFFF" d="M255.142,145.922c0.205-0.161,0.309-0.255,0.309-0.255C255.352,145.755,255.243,145.835,255.142,145.922z"
		/>
	<path fill="#FFFFFF" d="M261.059,51.662c0.056-0.433,0.058-0.661,0.058-0.661C261.103,51.222,261.079,51.441,261.059,51.662z"/>
	<path fill="#FFFFFF" d="M227.782,6.495C227.56,2.366,227.117,0,227.117,0C227.41,2.201,227.616,4.358,227.782,6.495z"/>
</g>
</svg>
